<svg width="27" height="27" viewBox="0 0 27 27" fill="none" xmlns="http://www.w3.org/2000/svg">
<path fill-rule="evenodd" clip-rule="evenodd" d="M5.70519 15.3286V25.3246C5.70519 25.8193 5.32051 26.2213 4.79158 26.2213H1.04098C0.560133 26.2213 0.175457 25.8193 0.175457 25.3246L0.175457 1.19375C0.175457 0.699001 0.560133 0.297543 1.04098 0.297543H4.79158C5.32051 0.297543 5.70519 0.699001 5.70519 1.19375V11.1898L23.9774 0.636503C24.4101 0.387926 24.939 0.387926 25.3718 0.636503C25.8046 0.885082 26.0931 1.34423 26.0931 1.84139C26.0931 7.07644 26.0931 19.4419 26.0931 24.6774C26.0931 25.1741 25.8046 25.6333 25.3718 25.8818C24.939 26.1304 24.4101 26.1304 23.9774 25.8824L5.70519 15.3286Z" fill="white"/>
</svg>
