<svg width="60" height="63" viewBox="0 0 60 63" fill="none" xmlns="http://www.w3.org/2000/svg">
<path fill-rule="evenodd" clip-rule="evenodd" d="M59.85 31.5C59.85 48.897 46.4521 63 29.925 63C13.3979 63 0 48.897 0 31.5C0 14.103 13.3979 0 29.925 0C46.4521 0 59.85 14.103 59.85 31.5ZM12.6913 23.1587C24.4006 19.2642 36.7061 20.3803 47.0899 25.6873C48.4961 26.4022 50.2156 25.9555 51.0023 24.5897C51.7855 23.2264 51.1788 21.3597 49.5715 20.5366C37.9417 14.5639 24.2101 13.3137 11.1822 17.6031C9.38669 18.1925 8.36035 20.0111 8.88404 21.5074C9.40656 23.0098 11.105 23.6829 12.6913 23.1587ZM44.1978 35.663C35.2121 31.0352 24.5396 30.0656 14.3967 33.4764C13.1109 33.9071 11.721 33.3534 11.2955 32.1352C11.2639 32.0405 11.2324 31.9457 11.1996 31.851C10.7765 30.6316 11.6123 29.1513 13.0699 28.6665C24.3643 24.9074 36.2829 25.9939 46.3557 31.2062C47.6625 31.8817 48.1582 33.4014 47.5246 34.5112C47.4755 34.5974 47.4276 34.6847 47.3797 34.7709C46.7426 35.8844 45.341 36.2487 44.1978 35.663ZM15.8976 41.9799C24.5314 39.0489 33.6235 39.8758 41.2637 43.8379C42.1731 44.3104 43.2953 44.0188 43.8097 43.1267L44.0434 42.7059C44.5519 41.8175 44.1533 40.6006 43.1083 40.0579C34.5399 35.5926 24.3794 34.6648 14.7637 37.8972C13.5948 38.2897 12.9238 39.4734 13.2616 40.4492C13.313 40.603 13.3645 40.7568 13.4171 40.9106C13.7572 41.8876 14.8666 42.3294 15.8976 41.9799Z" fill="#1ED760"/>
</svg>
