<svg width="27" height="27" viewBox="0 0 27 27" fill="none" xmlns="http://www.w3.org/2000/svg">
<path fill-rule="evenodd" clip-rule="evenodd" d="M20.8992 11.1902V1.19421C20.8992 0.69946 21.2839 0.297485 21.8128 0.297485H25.5635C26.0443 0.297485 26.429 0.69946 26.429 1.19421V25.325C26.429 25.8198 26.0443 26.2213 25.5635 26.2213H21.8128C21.2839 26.2213 20.8992 25.8198 20.8992 25.325V15.329L2.62708 25.8823C2.19432 26.1309 1.66538 26.1309 1.23262 25.8823C0.79986 25.6337 0.511353 25.1746 0.511353 24.6774C0.511353 19.4424 0.511353 7.07691 0.511353 1.84138C0.511353 1.3447 0.79986 0.885541 1.23262 0.636963C1.66538 0.388385 2.19432 0.388349 2.62708 0.636446L20.8992 11.1902Z" fill="white"/>
</svg>
