<svg width="60" height="60" viewBox="0 0 60 60" fill="none" xmlns="http://www.w3.org/2000/svg">
<path fill-rule="evenodd" clip-rule="evenodd" d="M30.2714 0.602905C46.6223 0.602905 59.8953 13.8747 59.8953 30.2222C59.8953 46.5702 46.6223 59.8419 30.2714 59.8419C13.9206 59.8419 0.647522 46.5702 0.647522 30.2222C0.647522 13.8747 13.9206 0.602905 30.2714 0.602905ZM26.8089 18.3818C26.8089 17.7231 26.2318 17.1879 25.6066 17.1879H20.6052C19.9319 17.1879 19.4029 17.7231 19.4029 18.3818V41.9174C19.4029 42.5766 19.9319 43.1117 20.6052 43.1117H25.6066C26.2318 43.1117 26.8089 42.5766 26.8089 41.9174V18.3818ZM41.6208 18.3818C41.6208 17.7231 41.0918 17.1879 40.4186 17.1879H35.4171C34.7439 17.1879 34.2149 17.7231 34.2149 18.3818V41.9174C34.2149 42.5766 34.7439 43.1117 35.4171 43.1117H40.4186C41.0918 43.1117 41.6208 42.5766 41.6208 41.9174V18.3818Z" fill="white"/>
</svg>
