<svg width="31" height="28" viewBox="0 0 31 28" fill="none" xmlns="http://www.w3.org/2000/svg">
<path fill-rule="evenodd" clip-rule="evenodd" d="M17.2605 21.1062L18.9207 19.5229C19.5066 18.9658 19.5066 18.0667 18.9207 17.5096C18.34 16.9525 17.389 16.9525 16.8031 17.5096L11.6275 22.4305L16.8031 27.3514C17.389 27.9036 18.34 27.9036 18.9207 27.3514C19.5066 26.7943 19.5066 25.8902 18.9207 25.3332L17.2605 23.7548H23.3455C27.2875 23.7548 30.4893 20.7055 30.4893 16.9574V7.013C30.4893 3.26492 27.2875 0.22052 23.3455 0.22052H7.367C3.41989 0.22052 0.217926 3.26492 0.217926 7.013V16.9574C0.217926 20.7055 3.41989 23.7548 7.367 23.7548H8.78557V21.1062H7.367C4.95659 21.1062 3.00367 19.2443 3.00367 16.9574V7.013C3.00367 4.72604 4.95659 2.86429 7.367 2.86429H23.3455C25.7508 2.86429 27.7092 4.72604 27.7092 7.013V16.9574C27.7092 19.2443 25.7508 21.1062 23.3455 21.1062H17.2605Z" fill="white"/>
</svg>
