<svg width="32" height="27" viewBox="0 0 32 27" fill="none" xmlns="http://www.w3.org/2000/svg">
<path fill-rule="evenodd" clip-rule="evenodd" d="M25.4979 22.5355C25.5544 22.5355 25.6058 22.5649 25.6264 22.6186C25.6521 22.6675 25.637 22.7261 25.5958 22.7652C25.1693 23.1708 24.3158 23.982 24.3158 23.982C23.7299 24.5391 23.7299 25.4431 24.3158 26.0002C24.9017 26.5573 25.8475 26.5573 26.4334 26.0002C26.4334 26.0002 30.3238 22.3059 31.3569 21.3188C31.4237 21.2553 31.4597 21.1673 31.4597 21.0793C31.4597 20.9914 31.4237 20.9034 31.3569 20.8399C30.3238 19.8528 26.4334 16.1584 26.4334 16.1584C25.8475 15.6013 24.9017 15.6013 24.3158 16.1584C23.7299 16.7155 23.7299 17.6195 24.3158 18.1766C24.3158 18.1766 25.2153 19.0318 25.6573 19.452C25.6984 19.4911 25.7139 19.5498 25.6882 19.5986C25.6676 19.6524 25.6162 19.6818 25.5597 19.6818C24.7785 19.6818 22.949 19.6768 22.949 19.6768C22.2603 19.6768 21.5713 19.3592 20.8467 18.8949C19.9267 18.2988 18.9965 17.4583 18.0509 16.481C18.0509 16.481 17.4959 15.9092 17.2081 15.6111C17.1618 15.5623 17.1002 15.533 17.0282 15.533C16.9614 15.5281 16.8946 15.5524 16.8483 15.5964C16.432 15.9629 15.4349 16.8328 15.0186 17.1993C14.9672 17.2433 14.9363 17.3019 14.9363 17.3655C14.9311 17.429 14.9571 17.4925 15.0033 17.5414C15.2912 17.8394 15.8461 18.4112 15.8461 18.4112C18.2565 20.8985 20.7133 22.5258 22.9438 22.5258C22.9438 22.5258 24.7321 22.5306 25.4979 22.5355ZM25.5958 3.95153C25.637 3.99063 25.6521 4.04438 25.6264 4.09813C25.6058 4.147 25.5544 4.18117 25.4979 4.18117C24.7321 4.18117 22.9438 4.18604 22.9438 4.18604C21.3763 4.18604 19.706 4.94353 18.0408 6.27271C15.9491 7.94395 13.7799 10.5485 11.6213 13.1629C9.59639 15.6063 7.58718 18.0642 5.62905 19.6279C4.59601 20.4538 3.62434 21.05 2.65298 21.05C2.65298 21.05 1.04947 21.05 0.417312 21.05C0.273407 21.05 0.160339 21.1575 0.160339 21.2894C0.160339 21.8318 0.160339 23.117 0.160339 23.6546C0.160339 23.723 0.186358 23.7816 0.232613 23.8305C0.284008 23.8745 0.34536 23.8989 0.417312 23.8989C0.843888 23.8989 1.66122 23.8989 1.66122 23.8989H2.65298C4.22565 23.8989 5.89116 23.1464 7.55634 21.8123C9.6481 20.1411 11.817 17.5365 13.9807 14.9221C16.0005 12.4788 18.0148 10.0207 19.973 8.45701C21.006 7.63116 21.9725 7.03501 22.9438 7.03501H22.949C22.949 7.03501 24.7785 7.03014 25.5597 7.03014C25.6162 7.03014 25.6676 7.06431 25.6882 7.11318C25.7139 7.16204 25.6984 7.22068 25.6573 7.25978C25.2153 7.68492 24.3158 8.54014 24.3158 8.54014C23.7299 9.09722 23.7299 9.99633 24.3158 10.5534C24.9017 11.1105 25.8475 11.1105 26.4334 10.5534C26.4334 10.5534 30.3238 6.85905 31.3569 5.87194C31.4237 5.80841 31.4597 5.72542 31.4597 5.63257C31.4597 5.54461 31.4237 5.45663 31.3569 5.3931C30.3238 4.41088 26.4334 0.711631 26.4334 0.711631C25.8475 0.159437 24.9017 0.159437 24.3158 0.711631C23.7299 1.26871 23.7299 2.17278 24.3158 2.72987C24.3158 2.72987 25.1693 3.54105 25.5958 3.95153ZM1.66122 5.66674H2.65298C3.51641 5.66674 4.38008 6.14559 5.28976 6.82484C6.441 7.68001 7.60774 8.87244 8.78981 10.2016C8.78981 10.2016 9.31372 10.7929 9.59125 11.1056C9.63237 11.1545 9.6995 11.1838 9.76631 11.1887C9.83313 11.1985 9.89962 11.174 9.95101 11.1349C10.3827 10.788 11.4158 9.9572 11.8526 9.61025C11.904 9.56627 11.935 9.5077 11.9401 9.44418C11.9453 9.38065 11.9246 9.31705 11.8835 9.26818C11.606 8.95543 11.0769 8.36415 11.0769 8.36415C9.46822 6.55119 7.86455 4.98258 6.31243 4.01014C5.07382 3.23316 3.84019 2.8129 2.65298 2.8129H0.160339V5.66674H1.66122Z" fill="white"/>
</svg>
